<svg width="25" height="24" viewBox="0 0 25 24" fill="none" xmlns="http://www.w3.org/2000/svg">
<g clip-path="url(#clip0_3_1854)">
<path d="M24.5 12.0006C24.4996 9.70738 23.8422 7.46232 22.6056 5.53116C21.3689 3.6 19.6048 2.06362 17.5221 1.1039C15.4394 0.144184 13.1254 -0.198683 10.8538 0.115894C8.58235 0.43047 6.44854 1.38932 4.70505 2.87892C2.96156 4.36852 1.68139 6.3265 1.0161 8.52105C0.350815 10.7156 0.328264 13.0548 0.951122 15.2618C1.57398 17.4688 2.81616 19.4511 4.53061 20.974C6.24506 22.4969 8.35999 23.4967 10.625 23.8551V15.4693H7.5785V12.0006H10.625V9.35681C10.625 6.34931 12.4167 4.68806 15.1572 4.68806C16.0573 4.70054 16.9551 4.77875 17.8438 4.92206V7.87556H16.3302C16.0723 7.84131 15.81 7.86553 15.5628 7.94643C15.3155 8.02734 15.0896 8.16285 14.9018 8.34293C14.714 8.52301 14.5691 8.74303 14.478 8.9867C14.3868 9.23037 14.3516 9.49144 14.375 9.75056V12.0006H17.7035L17.171 15.4693H14.375V23.8551C17.1978 23.4085 19.7686 21.9691 21.6248 19.796C23.4809 17.6228 24.5005 14.8585 24.5 12.0006Z" fill="#121127" fill-opacity="0.56"/>
</g>
<defs>
<clipPath id="clip0_3_1854">
<rect width="24" height="24" fill="white" transform="translate(0.5)"/>
</clipPath>
</defs>
</svg>
