<svg aria-hidden="true" style="position: absolute; width: 0; height: 0; overflow: hidden;" version="1.1" xmlns="http://www.w3.org/2000/svg" xmlns:xlink="http://www.w3.org/1999/xlink">
<defs>
<symbol id="icon-instagram" viewBox="0 0 33 32">
<path d="M16.667 3.7c4 0 4.48 0.015 6.061 0.087 0.951 0.011 1.894 0.186 2.786 0.517 0.651 0.24 1.24 0.624 1.724 1.122 0.498 0.484 0.881 1.073 1.122 1.724 0.331 0.892 0.506 1.835 0.517 2.786 0.072 1.584 0.090 2.064 0.090 6.064s-0.015 4.48-0.087 6.061c-0.011 0.951-0.186 1.894-0.517 2.786-0.25 0.647-0.632 1.234-1.122 1.724s-1.077 0.872-1.724 1.122c-0.892 0.331-1.835 0.506-2.786 0.517-1.581 0.072-2.056 0.087-6.061 0.087s-4.48-0.015-6.061-0.087c-0.951-0.011-1.894-0.186-2.786-0.517-0.651-0.241-1.24-0.624-1.724-1.122-0.498-0.483-0.882-1.073-1.122-1.724-0.331-0.892-0.506-1.835-0.517-2.786-0.075-1.581-0.093-2.056-0.093-6.061s0.015-4.48 0.087-6.061c0.011-0.951 0.186-1.894 0.517-2.786 0.241-0.652 0.626-1.241 1.125-1.724 0.484-0.498 1.073-0.882 1.724-1.122 0.892-0.331 1.835-0.506 2.786-0.517 1.581-0.072 2.061-0.090 6.061-0.090zM16.667 1c-4.074 0-4.585 0.017-6.184 0.090-1.245 0.026-2.476 0.263-3.642 0.7-1 0.376-1.907 0.966-2.656 1.728-0.763 0.749-1.354 1.655-1.731 2.656-0.437 1.166-0.674 2.397-0.7 3.642-0.070 1.599-0.087 2.11-0.087 6.184s0.017 4.585 0.090 6.184c0.026 1.245 0.263 2.476 0.7 3.642 0.377 1.001 0.968 1.907 1.731 2.656 0.749 0.763 1.655 1.354 2.656 1.731 1.166 0.437 2.397 0.674 3.642 0.7 1.6 0.073 2.11 0.090 6.184 0.090s4.585-0.017 6.184-0.090c1.245-0.026 2.476-0.263 3.642-0.7 0.996-0.386 1.901-0.976 2.656-1.731s1.345-1.66 1.731-2.656c0.437-1.166 0.674-2.397 0.7-3.642 0.073-1.6 0.090-2.11 0.090-6.184s-0.017-4.585-0.090-6.184c-0.026-1.245-0.263-2.476-0.7-3.642-0.377-1-0.968-1.907-1.731-2.656-0.749-0.763-1.656-1.354-2.656-1.731-1.166-0.437-2.397-0.674-3.642-0.7-1.602-0.070-2.113-0.087-6.187-0.087z"></path>
<path d="M16.667 8.3c-1.523 0-3.012 0.452-4.278 1.298s-2.253 2.049-2.836 3.456c-0.583 1.407-0.735 2.955-0.438 4.449s1.030 2.866 2.107 3.943c1.077 1.077 2.449 1.81 3.942 2.107s3.042 0.145 4.449-0.438c1.407-0.583 2.609-1.57 3.456-2.836s1.298-2.755 1.298-4.278c0-2.042-0.811-4.001-2.255-5.445s-3.403-2.255-5.445-2.255zM16.667 21c-0.989 0-1.956-0.293-2.778-0.843s-1.463-1.33-1.842-2.244c-0.378-0.914-0.477-1.919-0.285-2.889s0.669-1.861 1.368-2.56c0.699-0.699 1.59-1.175 2.56-1.368s1.975-0.094 2.889 0.285c0.914 0.378 1.695 1.019 2.244 1.842s0.843 1.789 0.843 2.778c0 1.326-0.527 2.598-1.465 3.535s-2.209 1.465-3.535 1.465z"></path>
<path d="M24.674 9.793c0.994 0 1.8-0.806 1.8-1.8s-0.806-1.8-1.8-1.8c-0.994 0-1.8 0.806-1.8 1.8s0.806 1.8 1.8 1.8z"></path>
</symbol>
<symbol id="icon-twitter" viewBox="0 0 33 32">
<path d="M32.667 6.1c-1.2 0.5-2.4 0.9-3.8 1 1.4-0.8 2.4-2.1 2.9-3.6-1.3 0.8-2.7 1.3-4.2 1.6-1.2-1.3-2.9-2.1-4.7-2.1-3.6 0-6.6 2.9-6.6 6.6 0 0.5 0.1 1 0.2 1.5-5.5-0.3-10.3-2.9-13.6-6.9-0.6 1-0.9 2.1-0.9 3.3 0 2.3 1.2 4.3 2.9 5.5-1.1 0-2.1-0.3-3-0.8v0.1c0 3.2 2.3 5.8 5.3 6.4-0.6 0.1-1.1 0.2-1.7 0.2-0.4 0-0.8 0-1.2-0.1 0.8 2.6 3.3 4.5 6.1 4.6-2.2 1.8-5.1 2.8-8.2 2.8-0.5 0-1.1 0-1.6-0.1 3 1.8 6.5 2.9 10.2 2.9 12.1 0 18.7-10 18.7-18.7 0-0.3 0-0.6 0-0.8 1.2-1 2.3-2.1 3.2-3.4z"></path>
</symbol>
<symbol id="icon-facebook" viewBox="0 0 33 32">
<path d="M32.667 16.001c-0.001-3.058-0.877-6.051-2.526-8.626s-4.001-4.623-6.778-5.903-5.862-1.737-8.891-1.317c-3.029 0.419-5.874 1.698-8.198 3.684s-4.032 4.597-4.919 7.523c-0.887 2.926-0.917 6.045-0.087 8.988s2.487 5.586 4.773 7.616c2.286 2.031 5.106 3.364 8.126 3.841v-11.181h-4.062v-4.625h4.062v-3.525c0-4.010 2.389-6.225 6.043-6.225 1.2 0.017 2.397 0.121 3.582 0.312v3.938h-2.018c-0.344-0.046-0.694-0.013-1.023 0.095s-0.631 0.289-0.881 0.529-0.444 0.533-0.565 0.858c-0.122 0.325-0.169 0.673-0.137 1.018v3h4.438l-0.71 4.625h-3.728v11.181c3.764-0.595 7.191-2.515 9.666-5.412s3.834-6.583 3.834-10.394z"></path>
</symbol>
<symbol id="icon-value" viewBox="0 0 32 32">
<path fill="#DEDEDE" style="fill: var(--color1, #DEDEDE)" d="M17.879 2.121c1.172-1.172 3.071-1.172 4.243 0l7.757 7.757c1.172 1.172 1.172 3.071 0 4.243l-7.757 7.757c-1.172 1.172-3.071 1.172-4.243 0l-7.757-7.757c-1.172-1.172-1.172-3.071 0-4.243l7.757-7.757z"></path>
<path fill="#90ecf4" style="fill: var(--color2, #90ecf4)" d="M19.556 16.006c0-1.334-1.414-2.193-2.598-1.577l-4.326 2.249c-0.193 0.1-0.415 0.126-0.626 0.074l-2.555-0.639c-0.445-0.111-0.915-0.046-1.313 0.181l-5.464 3.122c-0.554 0.317-0.896 0.906-0.896 1.544v5.706c0 0.982 0.796 1.778 1.778 1.778h14.222c0.982 0 1.778-0.796 1.778-1.778v-10.66z"></path>
<path fill="#444bd3" style="fill: var(--color3, #444bd3)" d="M8.111 22.514l-5.757 2.159c-0.347 0.13-0.577 0.462-0.577 0.832v1.162c0 0.982 0.796 1.778 1.778 1.778h14.222c0.982 0 1.778-0.796 1.778-1.778v-5.333c0-0.621-0.62-1.050-1.201-0.832l-5.133 2.319c-0.506 0.19-1.058 0.221-1.583 0.090l-1.944-0.486c-0.525-0.131-1.077-0.1-1.583 0.090z"></path>
</symbol>
<symbol id="icon-hire" viewBox="0 0 40 32">
<path fill="#DEDEDE" style="fill: var(--color1, #DEDEDE)" d="M24.242 2.424c1.339-1.339 3.51-1.339 4.849 0l8.866 8.866c1.339 1.339 1.339 3.51 0 4.849l-8.866 8.866c-1.339 1.339-3.51 1.339-4.849 0l-8.866-8.866c-1.339-1.339-1.339-3.51 0-4.849l8.866-8.866z"></path>
<path fill="#90ecf4" style="fill: var(--color2, #90ecf4)" d="M4.553 26.618c-1.125 1.319-0.188 3.35 1.546 3.35h12.18c1.733 0 2.671-2.031 1.546-3.35l-6.050-7.095c-0.831-0.975-2.337-0.975-3.169-0l-6.053 7.095z"></path>
<path fill="#444bd3" style="fill: var(--color3, #444bd3)" d="M4.553 17.475c-1.125 1.319-0.188 3.35 1.546 3.35h12.18c1.733 0 2.671-2.031 1.546-3.35l-6.050-7.095c-0.831-0.975-2.337-0.975-3.169-0l-6.053 7.095z"></path>
</symbol>
<symbol id="icon-connect" viewBox="0 0 32 32">
<path fill="#DEDEDE" style="fill: var(--color1, #DEDEDE)" d="M17.879 2.121c1.172-1.172 3.071-1.172 4.243 0l7.757 7.757c1.172 1.172 1.172 3.071 0 4.243l-7.757 7.757c-1.172 1.172-3.071 1.172-4.243 0l-7.757-7.757c-1.172-1.172-1.172-3.071 0-4.243l7.757-7.757z"></path>
<path fill="#90ecf4" style="fill: var(--color2, #90ecf4)" d="M4.709 14.65c-1.154-0.984-2.932-0.164-2.932 1.353v10.657c0 1.517 1.777 2.337 2.931 1.353l6.208-5.294c0.853-0.727 0.853-2.045 0-2.773l-6.208-5.296z"></path>
<path fill="#444bd3" style="fill: var(--color3, #444bd3)" d="M12.709 14.65c-1.154-0.984-2.932-0.164-2.932 1.353v10.657c0 1.517 1.777 2.337 2.931 1.353l6.208-5.294c0.853-0.727 0.853-2.045 0-2.773l-6.208-5.296z"></path>
</symbol>
<symbol id="icon-find" viewBox="0 0 32 32">
<path fill="#DEDEDE" style="fill: var(--color1, #DEDEDE)" d="M17.879 2.121c1.172-1.172 3.071-1.172 4.243 0l7.757 7.757c1.172 1.172 1.172 3.071 0 4.243l-7.757 7.757c-1.172 1.172-3.071 1.172-4.243 0l-7.757-7.757c-1.172-1.172-1.172-3.071 0-4.243l7.757-7.757z"></path>
<path fill="#90ecf4" style="fill: var(--color2, #90ecf4)" d="M13.838 13.333c-0.224 0-0.443-0-0.628 0.015-0.203 0.017-0.443 0.056-0.684 0.179-0.335 0.17-0.606 0.442-0.777 0.777-0.123 0.241-0.162 0.481-0.179 0.684-0.015 0.185-0.015 0.403-0.015 0.628v2.546c0 0.224 0 0.443 0.015 0.628 0.017 0.203 0.056 0.443 0.179 0.684 0.17 0.335 0.442 0.607 0.777 0.777 0.241 0.123 0.481 0.162 0.684 0.179 0.185 0.015 0.403 0.015 0.628 0.015h2.546c0.224 0 0.443 0 0.628-0.015 0.203-0.017 0.443-0.056 0.684-0.179 0.334-0.17 0.606-0.442 0.777-0.777 0.123-0.241 0.162-0.481 0.179-0.684 0.015-0.185 0.015-0.404 0.015-0.628v-2.546c0-0.224 0-0.443-0.015-0.628-0.017-0.203-0.056-0.443-0.179-0.684-0.17-0.334-0.442-0.606-0.777-0.777-0.241-0.123-0.481-0.162-0.684-0.179-0.185-0.015-0.403-0.015-0.628-0.015h-2.546z"></path>
<path fill="#90ecf4" style="fill: var(--color2, #90ecf4)" d="M4.949 22.222c-0.224 0-0.443 0-0.628 0.015-0.203 0.017-0.443 0.056-0.684 0.179-0.334 0.17-0.606 0.442-0.777 0.777-0.123 0.241-0.162 0.481-0.179 0.684-0.015 0.185-0.015 0.404-0.015 0.628v2.546c-0 0.224-0 0.443 0.015 0.628 0.017 0.203 0.056 0.443 0.179 0.684 0.17 0.334 0.442 0.606 0.777 0.777 0.241 0.123 0.481 0.162 0.684 0.179 0.185 0.015 0.404 0.015 0.628 0.015h2.546c0.224 0 0.443 0 0.628-0.015 0.203-0.017 0.443-0.056 0.684-0.179 0.335-0.17 0.607-0.442 0.777-0.777 0.123-0.241 0.162-0.481 0.179-0.684 0.015-0.185 0.015-0.403 0.015-0.628v-2.546c0-0.224 0-0.443-0.015-0.628-0.017-0.203-0.056-0.443-0.179-0.684-0.17-0.335-0.442-0.606-0.777-0.777-0.241-0.123-0.481-0.162-0.684-0.179-0.185-0.015-0.404-0.015-0.628-0.015h-2.546z"></path>
<path fill="#90ecf4" style="fill: var(--color2, #90ecf4)" d="M13.838 22.222c-0.224 0-0.443 0-0.628 0.015-0.203 0.017-0.443 0.056-0.684 0.179-0.335 0.17-0.606 0.442-0.777 0.777-0.123 0.241-0.162 0.481-0.179 0.684-0.015 0.185-0.015 0.404-0.015 0.628v2.546c0 0.224 0 0.443 0.015 0.628 0.017 0.203 0.056 0.443 0.179 0.684 0.17 0.334 0.442 0.606 0.777 0.777 0.241 0.123 0.481 0.162 0.684 0.179 0.185 0.015 0.404 0.015 0.628 0.015h2.546c0.224 0 0.443 0 0.628-0.015 0.203-0.017 0.443-0.056 0.684-0.179 0.334-0.17 0.606-0.442 0.777-0.777 0.123-0.241 0.162-0.481 0.179-0.684 0.015-0.185 0.015-0.403 0.015-0.628v-2.546c0-0.224 0-0.443-0.015-0.628-0.017-0.203-0.056-0.443-0.179-0.684-0.17-0.335-0.442-0.606-0.777-0.777-0.241-0.123-0.481-0.162-0.684-0.179-0.185-0.015-0.403-0.015-0.628-0.015h-2.546z"></path>
<path fill="#444bd3" style="fill: var(--color3, #444bd3)" d="M4.949 13.333c-0.224 0-0.443-0-0.628 0.015-0.203 0.017-0.443 0.056-0.684 0.179-0.334 0.17-0.606 0.442-0.777 0.777-0.123 0.241-0.162 0.481-0.179 0.684-0.015 0.185-0.015 0.403-0.015 0.628v2.546c-0 0.224-0 0.443 0.015 0.628 0.017 0.203 0.056 0.443 0.179 0.684 0.17 0.335 0.442 0.607 0.777 0.777 0.241 0.123 0.481 0.162 0.684 0.179 0.185 0.015 0.404 0.015 0.628 0.015h2.546c0.224 0 0.443 0 0.628-0.015 0.203-0.017 0.443-0.056 0.684-0.179 0.335-0.17 0.607-0.442 0.777-0.777 0.123-0.241 0.162-0.481 0.179-0.684 0.015-0.185 0.015-0.403 0.015-0.628v-2.546c0-0.224 0-0.443-0.015-0.628-0.017-0.203-0.056-0.443-0.179-0.684-0.17-0.334-0.442-0.606-0.777-0.777-0.241-0.123-0.481-0.162-0.684-0.179-0.185-0.015-0.403-0.015-0.628-0.015h-2.546z"></path>
</symbol>
<symbol id="icon-logo" viewBox="0 0 233 32">
<path d="M25.775 0.324v22.76h-5.544v-13.649l-5.090 13.649h-4.474l-5.123-13.682v13.682h-5.544v-22.76h6.549l6.387 15.757 6.322-15.757h6.517z"></path>
<path d="M28.66 14.006c0-1.859 0.346-3.491 1.037-4.896 0.713-1.405 1.675-2.486 2.886-3.242s2.561-1.135 4.053-1.135c1.275 0 2.388 0.259 3.339 0.778 0.973 0.519 1.718 1.2 2.237 2.043v-2.561h5.544v18.091h-5.544v-2.561c-0.54 0.843-1.297 1.524-2.269 2.043-0.951 0.519-2.064 0.778-3.339 0.778-1.47 0-2.81-0.378-4.020-1.135-1.21-0.778-2.172-1.87-2.886-3.275-0.692-1.427-1.037-3.069-1.037-4.928zM42.212 14.039c0-1.383-0.389-2.475-1.167-3.275-0.757-0.8-1.686-1.2-2.788-1.2s-2.043 0.4-2.821 1.2c-0.757 0.778-1.135 1.859-1.135 3.242s0.378 2.486 1.135 3.307c0.778 0.8 1.718 1.2 2.821 1.2s2.032-0.4 2.788-1.2c0.778-0.8 1.167-1.891 1.167-3.275z"></path>
<path d="M62.79 4.798c2.118 0 3.804 0.692 5.058 2.075 1.275 1.362 1.913 3.242 1.913 5.641v10.569h-5.512v-9.824c0-1.21-0.313-2.151-0.94-2.821s-1.47-1.005-2.529-1.005c-1.059 0-1.902 0.335-2.529 1.005s-0.94 1.61-0.94 2.821v9.824h-5.544v-18.091h5.544v2.399c0.562-0.8 1.318-1.427 2.269-1.88 0.951-0.476 2.021-0.713 3.21-0.713z"></path>
<path d="M72.511 14.006c0-1.859 0.346-3.491 1.037-4.896 0.713-1.405 1.675-2.486 2.885-3.242s2.561-1.135 4.053-1.135c1.275 0 2.388 0.259 3.339 0.778 0.973 0.519 1.718 1.2 2.237 2.043v-2.561h5.544v18.091h-5.544v-2.561c-0.54 0.843-1.297 1.524-2.269 2.043-0.951 0.519-2.064 0.778-3.339 0.778-1.47 0-2.81-0.378-4.020-1.135-1.21-0.778-2.172-1.87-2.885-3.275-0.692-1.427-1.037-3.069-1.037-4.928zM86.063 14.039c0-1.383-0.389-2.475-1.167-3.275-0.757-0.8-1.686-1.2-2.788-1.2s-2.043 0.4-2.821 1.2c-0.757 0.778-1.135 1.859-1.135 3.242s0.378 2.486 1.135 3.307c0.778 0.8 1.718 1.2 2.821 1.2s2.032-0.4 2.788-1.2c0.778-0.8 1.167-1.891 1.167-3.275z"></path>
<path d="M102.492 4.734c1.275 0 2.388 0.259 3.339 0.778 0.973 0.519 1.718 1.2 2.237 2.043v-2.561h5.544v18.059c0 1.664-0.335 3.166-1.005 4.507-0.649 1.362-1.654 2.442-3.015 3.242-1.34 0.8-3.015 1.2-5.025 1.2-2.68 0-4.852-0.638-6.517-1.913-1.664-1.254-2.615-2.961-2.853-5.123h5.479c0.173 0.692 0.584 1.232 1.232 1.621 0.648 0.411 1.448 0.616 2.399 0.616 1.146 0 2.053-0.335 2.723-1.005 0.692-0.648 1.037-1.697 1.037-3.145v-2.561c-0.54 0.843-1.286 1.535-2.237 2.075-0.951 0.519-2.064 0.778-3.339 0.778-1.491 0-2.842-0.378-4.053-1.135-1.21-0.778-2.172-1.87-2.885-3.275-0.692-1.427-1.038-3.069-1.038-4.928s0.346-3.491 1.038-4.896c0.713-1.405 1.675-2.486 2.885-3.242s2.561-1.135 4.053-1.135zM108.068 14.039c0-1.383-0.389-2.475-1.167-3.275-0.757-0.8-1.686-1.2-2.788-1.2s-2.043 0.4-2.821 1.2c-0.757 0.778-1.135 1.859-1.135 3.242s0.378 2.486 1.135 3.307c0.778 0.8 1.718 1.2 2.821 1.2s2.032-0.4 2.788-1.2c0.778-0.8 1.167-1.891 1.167-3.275z"></path>
<path d="M134.677 13.747c0 0.519-0.033 1.059-0.097 1.621h-12.548c0.087 1.124 0.443 1.989 1.070 2.594 0.648 0.584 1.437 0.875 2.367 0.875 1.383 0 2.345-0.584 2.886-1.751h5.901c-0.303 1.189-0.855 2.259-1.654 3.21-0.778 0.951-1.762 1.697-2.95 2.237s-2.518 0.811-3.988 0.811c-1.772 0-3.35-0.378-4.733-1.135s-2.464-1.837-3.242-3.242-1.167-3.048-1.167-4.928c0-1.88 0.378-3.523 1.135-4.928 0.778-1.405 1.859-2.486 3.242-3.242s2.972-1.135 4.766-1.135c1.751 0 3.307 0.367 4.669 1.102s2.421 1.783 3.177 3.145c0.779 1.362 1.168 2.95 1.168 4.766zM129.003 12.288c0-0.951-0.324-1.708-0.973-2.269s-1.459-0.843-2.432-0.843c-0.929 0-1.718 0.27-2.367 0.811-0.627 0.54-1.016 1.308-1.167 2.302h6.938z"></path>
<path d="M143.145 8.008c0.649-0.994 1.46-1.772 2.432-2.334 0.972-0.584 2.053-0.875 3.243-0.875v5.868h-1.524c-1.384 0-2.421 0.303-3.113 0.908-0.691 0.584-1.037 1.621-1.037 3.112v8.397h-5.544v-18.091h5.544v3.015z"></path>
<path d="M158.829 23.343c-1.579 0-2.983-0.27-4.215-0.811s-2.205-1.275-2.919-2.205c-0.713-0.951-1.113-2.010-1.199-3.177h5.479c0.065 0.627 0.357 1.135 0.876 1.524s1.156 0.584 1.912 0.584c0.692 0 1.221-0.13 1.589-0.389 0.388-0.281 0.583-0.638 0.583-1.070 0-0.519-0.269-0.897-0.809-1.135-0.541-0.259-1.416-0.54-2.627-0.843-1.297-0.303-2.377-0.616-3.243-0.94-0.864-0.346-1.609-0.875-2.237-1.589-0.627-0.735-0.94-1.718-0.94-2.95 0-1.037 0.281-1.978 0.844-2.821 0.583-0.865 1.425-1.545 2.528-2.043 1.124-0.497 2.453-0.746 3.988-0.746 2.269 0 4.053 0.562 5.349 1.686 1.319 1.124 2.075 2.615 2.269 4.474h-5.123c-0.085-0.627-0.367-1.124-0.843-1.491-0.453-0.367-1.059-0.551-1.816-0.551-0.648 0-1.145 0.13-1.491 0.389-0.345 0.238-0.519 0.573-0.519 1.005 0 0.519 0.269 0.908 0.811 1.167 0.561 0.259 1.427 0.519 2.593 0.778 1.34 0.346 2.432 0.692 3.275 1.037 0.843 0.324 1.577 0.865 2.205 1.621 0.648 0.735 0.983 1.729 1.004 2.983 0 1.059-0.303 2.010-0.908 2.853-0.583 0.821-1.437 1.47-2.561 1.945-1.101 0.476-2.388 0.713-3.857 0.713z"></path>
<path d="M186.893 7.651c0 1.318-0.303 2.529-0.907 3.631-0.605 1.081-1.535 1.956-2.789 2.626-1.253 0.67-2.809 1.005-4.668 1.005h-3.437v8.17h-5.544v-22.76h8.981c1.815 0 3.349 0.313 4.604 0.94 1.253 0.627 2.193 1.491 2.82 2.594s0.94 2.367 0.94 3.793zM178.108 10.505c1.059 0 1.848-0.249 2.367-0.746s0.777-1.2 0.777-2.107c0-0.908-0.259-1.61-0.777-2.107s-1.308-0.746-2.367-0.746h-3.016v5.706h3.016z"></path>
<path d="M201.387 23.084l-4.733-8.592h-1.329v8.592h-5.544v-22.76h9.305c1.793 0 3.317 0.313 4.571 0.94 1.276 0.627 2.227 1.491 2.853 2.594 0.627 1.081 0.94 2.291 0.94 3.631 0 1.513-0.432 2.864-1.296 4.053-0.844 1.189-2.097 2.032-3.761 2.529l5.252 9.013h-6.257zM195.324 10.569h3.437c1.016 0 1.772-0.249 2.269-0.746 0.519-0.497 0.777-1.2 0.777-2.107 0-0.865-0.259-1.545-0.777-2.043-0.497-0.497-1.253-0.746-2.269-0.746h-3.437v5.641z"></path>
<path d="M221.695 23.311c-2.14 0-4.108-0.497-5.901-1.491-1.772-0.994-3.188-2.377-4.247-4.15-1.039-1.794-1.557-3.804-1.557-6.030s0.519-4.226 1.557-5.998c1.059-1.772 2.475-3.156 4.247-4.15 1.793-0.994 3.761-1.491 5.901-1.491 2.139 0 4.095 0.497 5.868 1.491 1.793 0.994 3.199 2.378 4.215 4.15 1.037 1.772 1.556 3.772 1.556 5.998s-0.519 4.236-1.556 6.030c-1.037 1.772-2.443 3.156-4.215 4.15-1.773 0.994-3.729 1.491-5.868 1.491zM221.695 18.253c1.815 0 3.263-0.605 4.344-1.816 1.103-1.21 1.653-2.81 1.653-4.798 0-2.010-0.551-3.61-1.653-4.798-1.081-1.21-2.529-1.816-4.344-1.816-1.837 0-3.308 0.594-4.409 1.783-1.081 1.189-1.621 2.799-1.621 4.831 0 2.010 0.54 3.62 1.621 4.831 1.101 1.189 2.572 1.783 4.409 1.783z"></path>
</symbol>
</defs>
</svg>
