<svg width="25" height="24" viewBox="0 0 25 24" fill="none" xmlns="http://www.w3.org/2000/svg">
<g clip-path="url(#clip0_3_1855)">
<path d="M24.5 4.575C23.6 4.95 22.7001 5.25 21.65 5.325C22.7001 4.725 23.4501 3.75 23.8251 2.625C22.85 3.225 21.8 3.6 20.675 3.825C19.775 2.85 18.5 2.25 17.15 2.25C14.45 2.25 12.2 4.425 12.2 7.2C12.2 7.575 12.275 7.95 12.35 8.325C8.22505 8.1 4.62505 6.15 2.15005 3.15C1.70005 3.9 1.47505 4.725 1.47505 5.625C1.47505 7.35 2.37505 8.85 3.65005 9.75C2.82505 9.75 2.07505 9.525 1.40005 9.15V9.225C1.40005 11.625 3.12505 13.575 5.37505 14.025C4.92505 14.1 4.55005 14.175 4.10005 14.175C3.80005 14.175 3.50005 14.175 3.20005 14.1C3.80005 16.05 5.67505 17.475 7.77505 17.55C6.12505 18.9 3.95005 19.65 1.62505 19.65C1.25005 19.65 0.800049 19.65 0.425049 19.575C2.67505 20.925 5.30005 21.75 8.07505 21.75C17.15 21.75 22.1 14.25 22.1 7.725C22.1 7.5 22.1 7.275 22.1 7.125C23 6.375 23.825 5.55 24.5 4.575Z" fill="#121127" fill-opacity="0.56"/>
</g>
<defs>
<clipPath id="clip0_3_1855">
<rect width="24" height="24" fill="white" transform="translate(0.5)"/>
</clipPath>
</defs>
</svg>
